<?xml version="1.0" encoding="UTF-8"?>
<svg width="540px" height="285px" viewBox="0 0 540 285" version="1.1" xmlns="http://www.w3.org/2000/svg" xmlns:xlink="http://www.w3.org/1999/xlink">
    <title>iPhone 8</title>
    <defs>
        <rect id="path-1" x="238" y="48" width="42" height="42" rx="6"></rect>
        <mask id="mask-2" maskContentUnits="userSpaceOnUse" maskUnits="objectBoundingBox" x="0" y="0" width="42" height="42" fill="white">
            <use xlink:href="#path-1"></use>
        </mask>
        <rect id="path-3" x="238" y="129" width="42" height="42" rx="6"></rect>
        <mask id="mask-4" maskContentUnits="userSpaceOnUse" maskUnits="objectBoundingBox" x="0" y="0" width="42" height="42" fill="white">
            <use xlink:href="#path-3"></use>
        </mask>
        <rect id="path-5" x="472" y="210" width="42" height="42" rx="6"></rect>
        <mask id="mask-6" maskContentUnits="userSpaceOnUse" maskUnits="objectBoundingBox" x="0" y="0" width="42" height="42" fill="white">
            <use xlink:href="#path-5"></use>
        </mask>
        <rect id="path-7" x="472" y="129" width="42" height="42" rx="6"></rect>
        <mask id="mask-8" maskContentUnits="userSpaceOnUse" maskUnits="objectBoundingBox" x="0" y="0" width="42" height="42" fill="white">
            <use xlink:href="#path-7"></use>
        </mask>
        <rect id="path-9" x="472" y="48" width="42" height="42" rx="6"></rect>
        <mask id="mask-10" maskContentUnits="userSpaceOnUse" maskUnits="objectBoundingBox" x="0" y="0" width="42" height="42" fill="white">
            <use xlink:href="#path-9"></use>
        </mask>
        <rect id="path-11" x="238" y="210" width="42" height="42" rx="6"></rect>
        <mask id="mask-12" maskContentUnits="userSpaceOnUse" maskUnits="objectBoundingBox" x="0" y="0" width="42" height="42" fill="white">
            <use xlink:href="#path-11"></use>
        </mask>
    </defs>
    <g id="iPhone-8" stroke="none" stroke-width="1" fill="none" fill-rule="evenodd">
        <path d="M55,114 C58.3137085,114 61,116.686292 61,120 L61,132 L62,132 L62,141 L61,141 L61,179 C61,182.313708 58.3137085,185 55,185 L33,185 C29.6862915,185 27,182.313708 27,179 L27,143 L26,143 L26,137 L27,137 L27,136 L26,136 L26,130 L27,130 L27,128 L26,128 L26,125 L27,125 L27,120 C27,116.686292 29.6862915,114 33,114 L55,114 Z M55,116 L52,116 L52,117 C52,117.552285 51.5522847,118 51,118 L36,118 C35.4477153,118 35,117.552285 35,117 L35,116 L33,116 C30.8578046,116 29.1089211,117.683968 29.0048953,119.80036 L29,120 L29,179 C29,181.142195 30.6839685,182.891079 32.8003597,182.995105 L33,183 L55,183 C57.1421954,183 58.8910789,181.316032 58.9951047,179.19964 L59,179 L59,120 C59,117.857805 57.3160315,116.108921 55.1996403,116.004895 L55,116 Z" id="Combined-Shape" fill="#0285E9" fill-rule="nonzero"></path>
        <path d="M161,114 C164.313708,114 167,116.686292 167,120 L167,132 L168,132 L168,141 L167,141 L167,179 C167,182.313708 164.313708,185 161,185 L139,185 C135.686292,185 133,182.313708 133,179 L133,143 L132,143 L132,137 L133,137 L133,136 L132,136 L132,130 L133,130 L133,128 L132,128 L132,125 L133,125 L133,120 C133,116.686292 135.686292,114 139,114 L161,114 Z M161,116 L158,116 L158,117 C158,117.552285 157.552285,118 157,118 L142,118 C141.447715,118 141,117.552285 141,117 L141,116 L139,116 C136.857805,116 135.108921,117.683968 135.004895,119.80036 L135,120 L135,179 C135,181.142195 136.683968,182.891079 138.80036,182.995105 L139,183 L161,183 C163.142195,183 164.891079,181.316032 164.995105,179.19964 L165,179 L165,120 C165,117.857805 163.316032,116.108921 161.19964,116.004895 L161,116 Z" id="Combined-Shape-Copy" fill="#0285E9" fill-rule="nonzero"></path>
        <path d="M393,114 C396.313708,114 399,116.686292 399,120 L399,132 L400,132 L400,141 L399,141 L399,179 C399,182.313708 396.313708,185 393,185 L371,185 C367.686292,185 365,182.313708 365,179 L365,143 L364,143 L364,137 L365,137 L365,136 L364,136 L364,130 L365,130 L365,128 L364,128 L364,125 L365,125 L365,120 C365,116.686292 367.686292,114 371,114 L393,114 Z M393,116 L390,116 L390,117 C390,117.552285 389.552285,118 389,118 L374,118 C373.447715,118 373,117.552285 373,117 L373,116 L371,116 C368.857805,116 367.108921,117.683968 367.004895,119.80036 L367,120 L367,179 C367,181.142195 368.683968,182.891079 370.80036,182.995105 L371,183 L393,183 C395.142195,183 396.891079,181.316032 396.995105,179.19964 L397,179 L397,120 C397,117.857805 395.316032,116.108921 393.19964,116.004895 L393,116 Z" id="Combined-Shape-Copy-2" fill="#0285E9" fill-rule="nonzero"></path>
        <text id=".splash" font-family="Helvetica" font-size="14" font-weight="normal" fill="#8C8C8C">
            <tspan x="22.8208008" y="203">.splash</tspan>
        </text>
        <text id=".dashboard" font-family="Helvetica" font-size="14" font-weight="normal" fill="#8C8C8C">
            <tspan x="346.972656" y="203">.dashboard</tspan>
        </text>
        <text id=".compose" font-family="Helvetica" font-size="14" font-weight="normal" fill="#8C8C8C">
            <tspan x="462.151855" y="270">.compose</tspan>
        </text>
        <text id=".news" font-family="Helvetica" font-size="14" font-weight="normal" fill="#8C8C8C">
            <tspan x="474.213867" y="189">.news</tspan>
        </text>
        <text id=".library" font-family="Helvetica" font-size="14" font-weight="normal" fill="#8C8C8C">
            <tspan x="471.496582" y="108">.library</tspan>
        </text>
        <text id=".register" font-family="Helvetica" font-size="14" font-weight="normal" fill="#8C8C8C">
            <tspan x="234.713867" y="107">.register</tspan>
        </text>
        <text id=".login" font-family="Helvetica" font-size="14" font-weight="normal" fill="#8C8C8C">
            <tspan x="243.765625" y="188">.login</tspan>
        </text>
        <text id=".forgotPass" font-family="Helvetica" font-size="14" font-weight="normal" fill="#8C8C8C">
            <tspan x="224.593262" y="269">.forgotPass</tspan>
        </text>
        <text id=".gatekeeper" font-family="Helvetica" font-size="14" font-weight="normal" fill="#8C8C8C">
            <tspan x="113.527832" y="203">.gatekeeper</tspan>
        </text>
        <use id="Rectangle" stroke="#8CCDFF" mask="url(#mask-2)" stroke-width="4" stroke-dasharray="3" xlink:href="#path-1"></use>
        <use id="Rectangle-Copy-4" stroke="#8CCDFF" mask="url(#mask-4)" stroke-width="4" stroke-dasharray="3" xlink:href="#path-3"></use>
        <use id="Rectangle-Copy-6" stroke="#8CCDFF" mask="url(#mask-6)" stroke-width="4" stroke-dasharray="3" xlink:href="#path-5"></use>
        <use id="Rectangle-Copy-12" stroke="#8CCDFF" mask="url(#mask-8)" stroke-width="4" stroke-dasharray="3" xlink:href="#path-7"></use>
        <use id="Rectangle-Copy-11" stroke="#8CCDFF" mask="url(#mask-10)" stroke-width="4" stroke-dasharray="3" xlink:href="#path-9"></use>
        <use id="Rectangle-Copy-5" stroke="#8CCDFF" mask="url(#mask-12)" stroke-width="4" stroke-dasharray="3" xlink:href="#path-11"></use>
        <g id="Group" transform="translate(81.137928, 14.027730)">
            <path d="M129.862072,131.97227 L135.862072,135.97227 L129.862072,139.97227 L129.862072,136.97227 L106.862072,136.97227 L106.862072,134.97227 L129.862072,134.97227 L129.862072,131.97227 Z" id="Combined-Shape-Copy-3" fill="#F43A90"></path>
            <path d="M255.862072,131.97227 L261.862072,135.97227 L255.862072,139.97227 L255.862072,136.97227 L232.862072,136.97227 L232.862072,134.97227 L255.862072,134.97227 L255.862072,131.97227 Z" id="Combined-Shape-Copy-6" fill="#CDD1D6"></path>
            <path d="M363.862072,131.97227 L369.862072,135.97227 L363.862072,139.97227 L363.862072,136.97227 L340.862072,136.97227 L340.862072,134.97227 L363.862072,134.97227 L363.862072,131.97227 Z" id="Combined-Shape" fill="#F43A90"></path>
            <path d="M23.862072,131.97227 L29.862072,135.97227 L23.862072,139.97227 L23.862072,136.97227 L0.862071997,136.97227 L0.862071997,134.97227 L23.862072,134.97227 L23.862072,131.97227 Z" id="Combined-Shape-Copy-5" fill="#CDD1D6"></path>
            <polygon id="Path-Copy" fill="#CDD1D6" transform="translate(244.362072, 80.472270) scale(1, -1) translate(-244.362072, -80.472270) " points="248.892375 70.3662092 255.862072 68.9722699 254.468133 75.9419668 252.377224 73.8510577 234.256011 91.9722699 232.862072 90.5783305 250.983284 72.4571183"></polygon>
            <path d="M344.74086,202.487421 L346.831769,204.57833 L339.862072,205.97227 L341.256011,199.002573 L343.34692,201.093482 L352.665072,191.77527 L361.983284,182.457118 L359.892375,180.366209 L366.862072,178.97227 L365.468133,185.941967 L363.377224,183.851058 L344.74086,202.487421 Z" id="Combined-Shape" fill="#3E2ADB" transform="translate(353.362072, 192.472270) scale(1, -1) translate(-353.362072, -192.472270) "></path>
            <path d="M208.862072,139.97227 L202.862072,135.97227 L208.862072,131.97227 L208.862072,134.97227 L210.862072,134.97227 L210.862072,55.9722699 L208.862072,55.9722699 L208.862072,58.9722699 L202.862072,54.9722699 L208.862072,50.9722699 L208.862072,53.9722699 L212.862072,53.9722699 L212.862072,217.97227 L208.862072,217.97227 L208.862072,220.97227 L202.862072,216.97227 L208.862072,212.97227 L208.862072,215.97227 L210.862072,215.97227 L210.862072,136.97227 L208.862072,136.97227 L208.862072,139.97227 Z" id="Combined-Shape" fill="#CDD1D6"></path>
            <path d="M213.26689,12.6929771 C228.899931,19.6139607 244.383,30.3283431 259.393402,43.8069215 C269.032606,52.4624365 277.898169,61.7334836 285.791273,71.0048744 L286.378481,71.6967893 L287.523433,73.0587185 L288.628737,74.3903255 L289.693955,75.6902648 C289.868127,75.9042076 290.04061,76.1167748 290.211395,76.3279385 L291.215664,77.5778533 C291.379622,77.7832905 291.541865,77.9872681 291.702383,78.189758 L292.644717,79.3866209 C292.798298,79.5830479 292.950137,79.7779312 293.100223,79.9712427 L294.268385,81.4912804 L294.781366,82.170128 L295.012,82.482 L296.980671,80.5150146 L298.394884,87.5860824 L291.323817,86.1718688 L293.584,83.911 L293.417136,83.684991 L292.675339,82.7004963 L292.121403,81.975721 L291.52046,81.1977618 L290.606731,80.0291636 C290.450973,79.8313304 290.293485,79.6319825 290.134278,79.431148 L289.158469,78.2085265 C288.99242,78.0018579 288.824668,77.7937589 288.655225,77.5842576 L287.618332,76.3106461 L286.541269,75.0047264 L285.424478,73.6678468 C285.045642,73.2172101 284.660259,72.761638 284.268402,72.3013554 C276.429825,63.0940136 267.624853,53.8863283 258.05716,45.2950263 C243.191463,31.9463863 227.87558,21.3476979 212.457254,14.521772 C177.274569,-1.05413449 123.651269,-1.91514235 87.1940509,10.9155566 C69.2736886,17.2224223 51.3426635,30.8892482 34.012829,49.7183489 C25.4020312,59.0740977 17.498855,69.1019212 10.4798093,79.1297319 L9.44464596,80.6181358 L8.44493239,82.0742997 L7.48105109,83.4967552 L6.55338455,84.8840338 L5.66231526,86.2346669 C5.51687473,86.456637 5.37297502,86.6770191 5.2306241,86.8957825 L4.39516785,88.1886939 L3.71772892,89.2510318 L2.95951037,90.4572553 L1.93876443,92.1190164 L1.72272744,92.4802586 L5.68434189e-14,91.4642811 L0.590881149,90.4861242 L1.26155464,89.4003984 L2.02806689,88.1809653 L2.71157445,87.1091043 L3.55362933,85.8059704 L4.43297137,84.4639463 L5.3492229,83.0844972 C5.6607497,82.618606 5.97836514,82.1467216 6.30200627,81.6690879 L7.29094382,80.2191836 L8.31565789,78.7362492 C8.48940397,78.4864223 8.66462499,78.2352802 8.8413131,77.9828535 C15.908197,67.8866984 23.8652169,57.7905562 32.541242,48.363937 C50.0728851,29.3155685 68.2468895,15.4635465 86.530093,9.02898306 C123.453295,-3.9657136 177.602326,-3.09626429 213.26689,12.6929771 Z" id="Combined-Shape" fill="#FFE27D" fill-rule="nonzero"></path>
        </g>
        <text id="Auto" font-family="Helvetica" font-size="11" font-weight="normal" fill="#8C8C8C">
            <tspan x="42" y="34">Auto</tspan>
        </text>
        <text id="Modal" font-family="Helvetica" font-size="11" font-weight="normal" fill="#8C8C8C">
            <tspan x="42" y="53">Modal</tspan>
        </text>
        <text id="Redirected" font-family="Helvetica" font-size="11" font-weight="normal" fill="#8C8C8C">
            <tspan x="42" y="72">Redirected</tspan>
        </text>
        <rect id="Rectangle" fill="#F43A90" x="23" y="23" width="12" height="12"></rect>
        <rect id="Rectangle-Copy-13" fill="#3E2ADB" x="23" y="42" width="12" height="12"></rect>
        <rect id="Rectangle-Copy-14" fill="#FFE27D" x="23" y="61" width="12" height="12"></rect>
    </g>
</svg>