<?xml version="1.0" encoding="UTF-8"?>
<svg width="540px" height="285px" viewBox="0 0 540 285" version="1.1" xmlns="http://www.w3.org/2000/svg" xmlns:xlink="http://www.w3.org/1999/xlink">
    <title>iPhone 8</title>
    <defs>
        <rect id="path-1" x="238" y="48" width="42" height="42" rx="6"></rect>
        <mask id="mask-2" maskContentUnits="userSpaceOnUse" maskUnits="objectBoundingBox" x="0" y="0" width="42" height="42" fill="white">
            <use xlink:href="#path-1"></use>
        </mask>
        <rect id="path-3" x="238" y="129" width="42" height="42" rx="6"></rect>
        <mask id="mask-4" maskContentUnits="userSpaceOnUse" maskUnits="objectBoundingBox" x="0" y="0" width="42" height="42" fill="white">
            <use xlink:href="#path-3"></use>
        </mask>
        <rect id="path-5" x="472" y="143" width="42" height="42" rx="6"></rect>
        <mask id="mask-6" maskContentUnits="userSpaceOnUse" maskUnits="objectBoundingBox" x="0" y="0" width="42" height="42" fill="white">
            <use xlink:href="#path-5"></use>
        </mask>
        <rect id="path-7" x="238" y="210" width="42" height="42" rx="6"></rect>
        <mask id="mask-8" maskContentUnits="userSpaceOnUse" maskUnits="objectBoundingBox" x="0" y="0" width="42" height="42" fill="white">
            <use xlink:href="#path-7"></use>
        </mask>
    </defs>
    <g id="iPhone-8" stroke="none" stroke-width="1" fill="none" fill-rule="evenodd">
        <path d="M55,114 C58.3137085,114 61,116.686292 61,120 L61,132 L62,132 L62,141 L61,141 L61,179 C61,182.313708 58.3137085,185 55,185 L33,185 C29.6862915,185 27,182.313708 27,179 L27,143 L26,143 L26,137 L27,137 L27,136 L26,136 L26,130 L27,130 L27,128 L26,128 L26,125 L27,125 L27,120 C27,116.686292 29.6862915,114 33,114 L55,114 Z M55,116 L52,116 L52,117 C52,117.552285 51.5522847,118 51,118 L36,118 C35.4477153,118 35,117.552285 35,117 L35,116 L33,116 C30.8578046,116 29.1089211,117.683968 29.0048953,119.80036 L29,120 L29,179 C29,181.142195 30.6839685,182.891079 32.8003597,182.995105 L33,183 L55,183 C57.1421954,183 58.8910789,181.316032 58.9951047,179.19964 L59,179 L59,120 C59,117.857805 57.3160315,116.108921 55.1996403,116.004895 L55,116 Z" id="Combined-Shape" fill="#0285E9" fill-rule="nonzero"></path>
        <path d="M161,114 C164.313708,114 167,116.686292 167,120 L167,132 L168,132 L168,141 L167,141 L167,179 C167,182.313708 164.313708,185 161,185 L139,185 C135.686292,185 133,182.313708 133,179 L133,143 L132,143 L132,137 L133,137 L133,136 L132,136 L132,130 L133,130 L133,128 L132,128 L132,125 L133,125 L133,120 C133,116.686292 135.686292,114 139,114 L161,114 Z M161,116 L158,116 L158,117 C158,117.552285 157.552285,118 157,118 L142,118 C141.447715,118 141,117.552285 141,117 L141,116 L139,116 C136.857805,116 135.108921,117.683968 135.004895,119.80036 L135,120 L135,179 C135,181.142195 136.683968,182.891079 138.80036,182.995105 L139,183 L161,183 C163.142195,183 164.891079,181.316032 164.995105,179.19964 L165,179 L165,120 C165,117.857805 163.316032,116.108921 161.19964,116.004895 L161,116 Z" id="Combined-Shape-Copy" fill="#0285E9" fill-rule="nonzero"></path>
        <path d="M393,114 C396.313708,114 399,116.686292 399,120 L399,132 L400,132 L400,141 L399,141 L399,179 C399,182.313708 396.313708,185 393,185 L371,185 C367.686292,185 365,182.313708 365,179 L365,143 L364,143 L364,137 L365,137 L365,136 L364,136 L364,130 L365,130 L365,128 L364,128 L364,125 L365,125 L365,120 C365,116.686292 367.686292,114 371,114 L393,114 Z M393,116 L390,116 L390,117 C390,117.552285 389.552285,118 389,118 L374,118 C373.447715,118 373,117.552285 373,117 L373,116 L371,116 C368.857805,116 367.108921,117.683968 367.004895,119.80036 L367,120 L367,179 C367,181.142195 368.683968,182.891079 370.80036,182.995105 L371,183 L393,183 C395.142195,183 396.891079,181.316032 396.995105,179.19964 L397,179 L397,120 C397,117.857805 395.316032,116.108921 393.19964,116.004895 L393,116 Z" id="Combined-Shape-Copy-2" fill="#0285E9" fill-rule="nonzero"></path>
        <text id=".splash" font-family="Helvetica" font-size="14" font-weight="normal" fill="#8C8C8C">
            <tspan x="22.8208008" y="203">.splash</tspan>
        </text>
        <text id=".dashboard" font-family="Helvetica" font-size="14" font-weight="normal" fill="#8C8C8C">
            <tspan x="346.972656" y="203">.dashboard</tspan>
        </text>
        <text id=".compose" font-family="Helvetica" font-size="14" font-weight="normal" fill="#8C8C8C">
            <tspan x="462.151855" y="203">.compose</tspan>
        </text>
        <text id=".login" font-family="Helvetica" font-size="14" font-weight="normal" fill="#8C8C8C">
            <tspan x="243.265625" y="107">.login</tspan>
        </text>
        <text id=".register" font-family="Helvetica" font-size="14" font-weight="normal" fill="#8C8C8C">
            <tspan x="235.213867" y="188">.register</tspan>
        </text>
        <text id=".forgotPass" font-family="Helvetica" font-size="14" font-weight="normal" fill="#8C8C8C">
            <tspan x="224.593262" y="269">.forgotPass</tspan>
        </text>
        <text id=".gatekeeper" font-family="Helvetica" font-size="14" font-weight="normal" fill="#8C8C8C">
            <tspan x="113.527832" y="203">.gatekeeper</tspan>
        </text>
        <use id="Rectangle" stroke="#8CCDFF" mask="url(#mask-2)" stroke-width="4" stroke-dasharray="3" xlink:href="#path-1"></use>
        <use id="Rectangle-Copy-4" stroke="#8CCDFF" mask="url(#mask-4)" stroke-width="4" stroke-dasharray="3" xlink:href="#path-3"></use>
        <use id="Rectangle-Copy-6" stroke="#8CCDFF" mask="url(#mask-6)" stroke-width="4" stroke-dasharray="3" xlink:href="#path-5"></use>
        <use id="Rectangle-Copy-5" stroke="#8CCDFF" mask="url(#mask-8)" stroke-width="4" stroke-dasharray="3" xlink:href="#path-7"></use>
        <path d="M290,65 L290,68 L294,68 L294,232 L290,232 L290,235 L284,231 L290,227 L290,230 L292,230 L292,151 L290,151 L290,154 L284,150 L290,146 L290,149 L292,149 L292,70 L290,70 L290,73 L284,69 L290,65 Z M189.393939,194 L207.515152,212.121212 L209.606061,210.030303 L211,217 L204.030303,215.606061 L206.121212,213.515152 L188,195.393939 L189.393939,194 Z M445,160 L451,164 L445,168 L445,165 L426,165 L426,168 L420,164 L426,160 L426,163 L445,163 L445,160 Z M211,146 L217,150 L211,154 L211,151 L188,151 L188,149 L211,149 L211,146 Z M337,146 L343,150 L337,154 L337,151 L314,151 L314,149 L337,149 L337,146 Z M105,146 L111,150 L105,154 L105,151 L82,151 L82,149 L105,149 L105,146 Z M294.404818,26.7207073 C310.037859,33.6416908 325.520928,44.3560732 340.53133,57.8346516 C350.170534,66.4901666 359.036097,75.7612138 366.929201,85.0326045 L367.516409,85.7245194 L368.661361,87.0864486 L369.766665,88.4180556 L370.831883,89.7179949 C371.006055,89.9319377 371.178538,90.144505 371.349323,90.3556687 L372.353592,91.6055835 C372.51755,91.8110207 372.679793,92.0149983 372.840311,92.2174881 L373.782645,93.414351 C373.936226,93.610778 374.088065,93.8056613 374.238151,93.9989728 L375.406313,95.5190106 L375.919294,96.1978582 L376.149928,96.5097301 L378.118599,94.5427447 L379.532812,101.613813 L372.461745,100.199599 L374.721928,97.9387301 L374.555064,97.7127211 L373.813267,96.7282264 L373.259331,96.0034511 L372.658388,95.2254919 L371.744659,94.0568937 C371.588901,93.8590605 371.431413,93.6597126 371.272206,93.4588782 L370.296397,92.2362566 C370.130348,92.0295881 369.962596,91.8214891 369.793153,91.6119877 L368.75626,90.3383762 L367.679197,89.0324566 L366.562406,87.695577 C366.18357,87.2449402 365.798187,86.7893682 365.40633,86.3290855 C357.567753,77.1217437 348.762781,67.9140584 339.195088,59.3227564 C324.329391,45.9741165 309.013508,35.3754281 293.595182,28.5495022 C258.412497,12.9735957 204.789197,12.1125878 168.331979,24.9432868 C150.411617,31.2501524 132.480592,44.9169784 115.150757,63.7460791 C106.539959,73.1018279 98.636783,83.1296514 91.6177373,93.1574621 L90.582574,94.6458659 L89.5828604,96.1020299 L88.6189791,97.5244854 L87.6913126,98.911764 L86.8002433,100.262397 C86.6548027,100.484367 86.510903,100.704749 86.3685521,100.923513 L85.5330959,102.216424 L84.8556569,103.278762 L84.0974384,104.484985 L83.0766924,106.146747 L82.8606554,106.507989 L81.137928,105.492011 L81.7288092,104.513854 L82.3994826,103.428129 L83.1659949,102.208695 L83.8495025,101.136834 L84.6915573,99.8337005 L85.5708994,98.4916765 L86.4871509,97.1122273 C86.7986777,96.6463362 87.1162931,96.1744517 87.4399343,95.6968181 L88.4288718,94.2469137 L89.4535859,92.7639793 C89.627332,92.5141524 89.802553,92.2630104 89.9792411,92.0105836 C97.046125,81.9144286 105.003145,71.8182863 113.67917,62.3916671 C131.210813,43.3432987 149.384817,29.4912766 167.668021,23.0567132 C204.591223,10.0620165 258.740254,10.9314659 294.404818,26.7207073 Z M211,83 L209.606061,89.969697 L207.515152,87.8787879 L189.393939,106 L188,104.606061 L206.121212,86.4848485 L204.030303,84.3939394 L211,83 Z M315.393939,83 L333.515152,101.121212 L335.606061,99.030303 L337,106 L330.030303,104.606061 L332.121212,102.515152 L314,84.3939394 L315.393939,83 Z" id="Combined-Shape" fill="#CDD1D6"></path>
    </g>
</svg>