<?xml version="1.0" encoding="UTF-8"?>
<svg width="540px" height="285px" viewBox="0 0 540 285" version="1.1" xmlns="http://www.w3.org/2000/svg" xmlns:xlink="http://www.w3.org/1999/xlink">
    <title>iPhone 8</title>
    <defs>
        <rect id="path-1" x="238" y="48" width="42" height="42" rx="6"></rect>
        <mask id="mask-2" maskContentUnits="userSpaceOnUse" maskUnits="objectBoundingBox" x="0" y="0" width="42" height="42" fill="white">
            <use xlink:href="#path-1"></use>
        </mask>
        <rect id="path-3" x="238" y="129" width="42" height="42" rx="6"></rect>
        <mask id="mask-4" maskContentUnits="userSpaceOnUse" maskUnits="objectBoundingBox" x="0" y="0" width="42" height="42" fill="white">
            <use xlink:href="#path-3"></use>
        </mask>
        <rect id="path-5" x="472" y="210" width="42" height="42" rx="6"></rect>
        <mask id="mask-6" maskContentUnits="userSpaceOnUse" maskUnits="objectBoundingBox" x="0" y="0" width="42" height="42" fill="white">
            <use xlink:href="#path-5"></use>
        </mask>
        <rect id="path-7" x="472" y="129" width="42" height="42" rx="6"></rect>
        <mask id="mask-8" maskContentUnits="userSpaceOnUse" maskUnits="objectBoundingBox" x="0" y="0" width="42" height="42" fill="white">
            <use xlink:href="#path-7"></use>
        </mask>
        <rect id="path-9" x="472" y="48" width="42" height="42" rx="6"></rect>
        <mask id="mask-10" maskContentUnits="userSpaceOnUse" maskUnits="objectBoundingBox" x="0" y="0" width="42" height="42" fill="white">
            <use xlink:href="#path-9"></use>
        </mask>
        <rect id="path-11" x="238" y="210" width="42" height="42" rx="6"></rect>
        <mask id="mask-12" maskContentUnits="userSpaceOnUse" maskUnits="objectBoundingBox" x="0" y="0" width="42" height="42" fill="white">
            <use xlink:href="#path-11"></use>
        </mask>
    </defs>
    <g id="iPhone-8" stroke="none" stroke-width="1" fill="none" fill-rule="evenodd">
        <path d="M55,114 C58.3137085,114 61,116.686292 61,120 L61,132 L62,132 L62,141 L61,141 L61,179 C61,182.313708 58.3137085,185 55,185 L33,185 C29.6862915,185 27,182.313708 27,179 L27,143 L26,143 L26,137 L27,137 L27,136 L26,136 L26,130 L27,130 L27,128 L26,128 L26,125 L27,125 L27,120 C27,116.686292 29.6862915,114 33,114 L55,114 Z M55,116 L52,116 L52,117 C52,117.552285 51.5522847,118 51,118 L36,118 C35.4477153,118 35,117.552285 35,117 L35,116 L33,116 C30.8578046,116 29.1089211,117.683968 29.0048953,119.80036 L29,120 L29,179 C29,181.142195 30.6839685,182.891079 32.8003597,182.995105 L33,183 L55,183 C57.1421954,183 58.8910789,181.316032 58.9951047,179.19964 L59,179 L59,120 C59,117.857805 57.3160315,116.108921 55.1996403,116.004895 L55,116 Z" id="Combined-Shape" fill="#0285E9" fill-rule="nonzero"></path>
        <path d="M161,114 C164.313708,114 167,116.686292 167,120 L167,132 L168,132 L168,141 L167,141 L167,179 C167,182.313708 164.313708,185 161,185 L139,185 C135.686292,185 133,182.313708 133,179 L133,143 L132,143 L132,137 L133,137 L133,136 L132,136 L132,130 L133,130 L133,128 L132,128 L132,125 L133,125 L133,120 C133,116.686292 135.686292,114 139,114 L161,114 Z M161,116 L158,116 L158,117 C158,117.552285 157.552285,118 157,118 L142,118 C141.447715,118 141,117.552285 141,117 L141,116 L139,116 C136.857805,116 135.108921,117.683968 135.004895,119.80036 L135,120 L135,179 C135,181.142195 136.683968,182.891079 138.80036,182.995105 L139,183 L161,183 C163.142195,183 164.891079,181.316032 164.995105,179.19964 L165,179 L165,120 C165,117.857805 163.316032,116.108921 161.19964,116.004895 L161,116 Z" id="Combined-Shape-Copy" fill="#0285E9" fill-rule="nonzero"></path>
        <path d="M393,114 C396.313708,114 399,116.686292 399,120 L399,132 L400,132 L400,141 L399,141 L399,179 C399,182.313708 396.313708,185 393,185 L371,185 C367.686292,185 365,182.313708 365,179 L365,143 L364,143 L364,137 L365,137 L365,136 L364,136 L364,130 L365,130 L365,128 L364,128 L364,125 L365,125 L365,120 C365,116.686292 367.686292,114 371,114 L393,114 Z M393,116 L390,116 L390,117 C390,117.552285 389.552285,118 389,118 L374,118 C373.447715,118 373,117.552285 373,117 L373,116 L371,116 C368.857805,116 367.108921,117.683968 367.004895,119.80036 L367,120 L367,179 C367,181.142195 368.683968,182.891079 370.80036,182.995105 L371,183 L393,183 C395.142195,183 396.891079,181.316032 396.995105,179.19964 L397,179 L397,120 C397,117.857805 395.316032,116.108921 393.19964,116.004895 L393,116 Z" id="Combined-Shape-Copy-2" fill="#0285E9" fill-rule="nonzero"></path>
        <text id=".splash" font-family="Helvetica" font-size="14" font-weight="normal" fill="#8C8C8C">
            <tspan x="22.8208008" y="203">.splash</tspan>
        </text>
        <text id=".dashboard" font-family="Helvetica" font-size="14" font-weight="normal" fill="#8C8C8C">
            <tspan x="346.972656" y="203">.dashboard</tspan>
        </text>
        <text id=".compose" font-family="Helvetica" font-size="14" font-weight="normal" fill="#8C8C8C">
            <tspan x="462.151855" y="270">.compose</tspan>
        </text>
        <text id=".news" font-family="Helvetica" font-size="14" font-weight="normal" fill="#8C8C8C">
            <tspan x="474.213867" y="189">.news</tspan>
        </text>
        <text id=".library" font-family="Helvetica" font-size="14" font-weight="normal" fill="#8C8C8C">
            <tspan x="471.496582" y="108">.library</tspan>
        </text>
        <text id=".register" font-family="Helvetica" font-size="14" font-weight="normal" fill="#8C8C8C">
            <tspan x="234.713867" y="107">.register</tspan>
        </text>
        <text id=".login" font-family="Helvetica" font-size="14" font-weight="normal" fill="#8C8C8C">
            <tspan x="243.765625" y="188">.login</tspan>
        </text>
        <text id=".forgotPass" font-family="Helvetica" font-size="14" font-weight="normal" fill="#8C8C8C">
            <tspan x="224.593262" y="269">.forgotPass</tspan>
        </text>
        <text id=".gatekeeper" font-family="Helvetica" font-size="14" font-weight="normal" fill="#8C8C8C">
            <tspan x="113.527832" y="203">.gatekeeper</tspan>
        </text>
        <use id="Rectangle" stroke="#8CCDFF" mask="url(#mask-2)" stroke-width="4" stroke-dasharray="3" xlink:href="#path-1"></use>
        <use id="Rectangle-Copy-4" stroke="#8CCDFF" mask="url(#mask-4)" stroke-width="4" stroke-dasharray="3" xlink:href="#path-3"></use>
        <use id="Rectangle-Copy-6" stroke="#8CCDFF" mask="url(#mask-6)" stroke-width="4" stroke-dasharray="3" xlink:href="#path-5"></use>
        <use id="Rectangle-Copy-12" stroke="#8CCDFF" mask="url(#mask-8)" stroke-width="4" stroke-dasharray="3" xlink:href="#path-7"></use>
        <use id="Rectangle-Copy-11" stroke="#8CCDFF" mask="url(#mask-10)" stroke-width="4" stroke-dasharray="3" xlink:href="#path-9"></use>
        <use id="Rectangle-Copy-5" stroke="#8CCDFF" mask="url(#mask-12)" stroke-width="4" stroke-dasharray="3" xlink:href="#path-11"></use>
        <path d="M211,146 L217,150 L211,154 L211,151 L188,151 L188,149 L211,149 L211,146 Z" id="Combined-Shape-Copy-3" fill="#F43A90"></path>
        <path d="M337,146 L343,150 L337,154 L337,151 L314,151 L314,149 L337,149 L337,146 Z" id="Combined-Shape-Copy-6" fill="#CDD1D6"></path>
        <path d="M445,146 L451,150 L445,154 L445,151 L422,151 L422,149 L445,149 L445,146 Z" id="Combined-Shape" fill="#F43A90"></path>
        <path d="M105,146 L111,150 L105,154 L105,151 L82,151 L82,149 L105,149 L105,146 Z" id="Combined-Shape-Copy-5" fill="#CDD1D6"></path>
        <polygon id="Path-Copy" fill="#CDD1D6" transform="translate(325.500000, 94.500000) scale(1, -1) translate(-325.500000, -94.500000) " points="330.030303 84.3939394 337 83 335.606061 89.969697 333.515152 87.8787879 315.393939 106 314 104.606061 332.121212 86.4848485"></polygon>
        <polygon id="Combined-Shape" fill="#3E2ADB" transform="translate(436.500000, 208.500000) scale(1, -1) translate(-436.500000, -208.500000) " points="441.030303 198.393939 448 197 446.606061 203.969697 444.515152 201.878788 426.393939 220 425 218.606061 443.121212 200.484848"></polygon>
        <path d="M290,154 L284,150 L290,146 L290,149 L292,149 L292,70 L290,70 L290,73 L284,69 L290,65 L290,68 L294,68 L294,232 L290,232 L290,235 L284,231 L290,227 L290,230 L292,230 L292,151 L290,151 L290,154 Z" id="Combined-Shape" fill="#CDD1D6"></path>
        <path d="M525,154 L519,150 L525,146 L525,149 L527,149 L527,70 L525,70 L525,73 L519,69 L525,65 L525,68 L529,68 L529,151 L525,151 L525,154 Z" id="Combined-Shape-Copy-4" fill="#CDD1D6"></path>
        <path d="M294.404818,26.7207073 C310.037859,33.6416908 325.520928,44.3560732 340.53133,57.8346516 C350.170534,66.4901666 359.036097,75.7612138 366.929201,85.0326045 L367.516409,85.7245194 L368.661361,87.0864486 L369.766665,88.4180556 L370.831883,89.7179949 C371.006055,89.9319377 371.178538,90.144505 371.349323,90.3556687 L372.353592,91.6055835 C372.51755,91.8110207 372.679793,92.0149983 372.840311,92.2174881 L373.782645,93.414351 C373.936226,93.610778 374.088065,93.8056613 374.238151,93.9989728 L375.406313,95.5190106 L375.919294,96.1978582 L376.149928,96.5097301 L378.118599,94.5427447 L379.532812,101.613813 L372.461745,100.199599 L374.721928,97.9387301 L374.555064,97.7127211 L373.813267,96.7282264 L373.259331,96.0034511 L372.658388,95.2254919 L371.744659,94.0568937 C371.588901,93.8590605 371.431413,93.6597126 371.272206,93.4588782 L370.296397,92.2362566 C370.130348,92.0295881 369.962596,91.8214891 369.793153,91.6119877 L368.75626,90.3383762 L367.679197,89.0324566 L366.562406,87.695577 C366.18357,87.2449402 365.798187,86.7893682 365.40633,86.3290855 C357.567753,77.1217437 348.762781,67.9140584 339.195088,59.3227564 C324.329391,45.9741165 309.013508,35.3754281 293.595182,28.5495022 C258.412497,12.9735957 204.789197,12.1125878 168.331979,24.9432868 C150.411617,31.2501524 132.480592,44.9169784 115.150757,63.7460791 C106.539959,73.1018279 98.636783,83.1296514 91.6177373,93.1574621 L90.582574,94.6458659 L89.5828604,96.1020299 L88.6189791,97.5244854 L87.6913126,98.911764 L86.8002433,100.262397 C86.6548027,100.484367 86.510903,100.704749 86.3685521,100.923513 L85.5330959,102.216424 L84.8556569,103.278762 L84.0974384,104.484985 L83.0766924,106.146747 L82.8606554,106.507989 L81.137928,105.492011 L81.7288092,104.513854 L82.3994826,103.428129 L83.1659949,102.208695 L83.8495025,101.136834 L84.6915573,99.8337005 L85.5708994,98.4916765 L86.4871509,97.1122273 C86.7986777,96.6463362 87.1162931,96.1744517 87.4399343,95.6968181 L88.4288718,94.2469137 L89.4535859,92.7639793 C89.627332,92.5141524 89.802553,92.2630104 89.9792411,92.0105836 C97.046125,81.9144286 105.003145,71.8182863 113.67917,62.3916671 C131.210813,43.3432987 149.384817,29.4912766 167.668021,23.0567132 C204.591223,10.0620165 258.740254,10.9314659 294.404818,26.7207073 Z" id="Combined-Shape" fill="#CDD1D6" fill-rule="nonzero"></path>
        <path d="M190.0625,144 L190.0625,142.829102 L188.939941,142.829102 L188.939941,144 L190.0625,144 Z M192.731934,144 L192.731934,140.949219 C192.731934,140.182943 192.894857,139.661947 193.220703,139.38623 C193.546549,139.110514 193.909993,138.972656 194.311035,138.972656 C194.794434,138.972656 195.123861,139.130208 195.299316,139.445312 C195.406738,139.642253 195.460449,139.951986 195.460449,140.374512 L195.460449,140.374512 L195.460449,144 L196.454102,144 L196.454102,140.310059 C196.454102,139.744303 196.373535,139.302083 196.212402,138.983398 C195.915202,138.39974 195.349447,138.10791 194.515137,138.10791 C194.049642,138.10791 193.661133,138.209961 193.349609,138.414062 C193.166992,138.532227 192.9611,138.736328 192.731934,139.026367 L192.731934,139.026367 L192.731934,136.083008 L191.765137,136.083008 L191.765137,144 L192.731934,144 Z M200.074219,144.209473 C201.023112,144.209473 201.723145,143.906901 202.174316,143.301758 C202.625488,142.696615 202.851074,141.930339 202.851074,141.00293 C202.851074,140.043294 202.595052,139.316406 202.083008,138.822266 C201.570964,138.328125 200.944336,138.081055 200.203125,138.081055 C199.375977,138.081055 198.717122,138.367513 198.226562,138.94043 C197.736003,139.513346 197.490723,140.283203 197.490723,141.25 C197.490723,142.152344 197.72347,142.871175 198.188965,143.406494 C198.65446,143.941813 199.282878,144.209473 200.074219,144.209473 Z M200.165527,143.376953 C199.581868,143.376953 199.155762,143.172852 198.887207,142.764648 C198.618652,142.356445 198.484375,141.846191 198.484375,141.233887 C198.484375,140.596517 198.618652,140.052246 198.887207,139.601074 C199.155762,139.149902 199.585449,138.924316 200.17627,138.924316 C200.842285,138.924316 201.311361,139.18929 201.583496,139.719238 C201.755371,140.055827 201.841309,140.492676 201.841309,141.029785 C201.841309,141.624186 201.722249,142.163981 201.484131,142.64917 C201.246012,143.134359 200.806478,143.376953 200.165527,143.376953 Z M204.994141,144 L204.994141,136.109863 L204.027344,136.109863 L204.027344,144 L204.994141,144 Z M208.404785,144.204102 C208.802246,144.204102 209.154948,144.125326 209.462891,143.967773 C209.770833,143.810221 210.037598,143.554199 210.263184,143.199707 L210.263184,143.199707 L210.263184,144 L211.133301,144 L211.133301,136.083008 L210.204102,136.083008 L210.204102,138.98877 C209.985677,138.720215 209.790527,138.532227 209.618652,138.424805 C209.321452,138.238607 208.952637,138.145508 208.512207,138.145508 C207.717285,138.145508 207.105876,138.452555 206.677979,139.06665 C206.250081,139.680745 206.036133,140.406738 206.036133,141.244629 C206.036133,142.139811 206.270671,142.856852 206.739746,143.395752 C207.208822,143.934652 207.763835,144.204102 208.404785,144.204102 Z M208.705566,143.36084 C208.129069,143.36084 207.710124,143.153158 207.44873,142.737793 C207.187337,142.322428 207.056641,141.806803 207.056641,141.190918 C207.056641,140.467611 207.207926,139.919759 207.510498,139.547363 C207.81307,139.174967 208.207845,138.98877 208.694824,138.98877 C209.131673,138.98877 209.498698,139.16333 209.795898,139.512451 C210.093099,139.861572 210.241699,140.399577 210.241699,141.126465 C210.241699,141.846191 210.097575,142.398519 209.809326,142.783447 C209.521077,143.168376 209.153158,143.36084 208.705566,143.36084 Z" id=".hold" fill="#8C8C8C" fill-rule="nonzero"></path>
        <path d="M424.0625,144 L424.0625,142.829102 L422.939941,142.829102 L422.939941,144 L424.0625,144 Z M426.731934,144 L426.731934,140.949219 C426.731934,140.182943 426.894857,139.661947 427.220703,139.38623 C427.546549,139.110514 427.909993,138.972656 428.311035,138.972656 C428.794434,138.972656 429.123861,139.130208 429.299316,139.445312 C429.406738,139.642253 429.460449,139.951986 429.460449,140.374512 L429.460449,140.374512 L429.460449,144 L430.454102,144 L430.454102,140.310059 C430.454102,139.744303 430.373535,139.302083 430.212402,138.983398 C429.915202,138.39974 429.349447,138.10791 428.515137,138.10791 C428.049642,138.10791 427.661133,138.209961 427.349609,138.414062 C427.166992,138.532227 426.9611,138.736328 426.731934,139.026367 L426.731934,139.026367 L426.731934,136.083008 L425.765137,136.083008 L425.765137,144 L426.731934,144 Z M434.074219,144.209473 C435.023112,144.209473 435.723145,143.906901 436.174316,143.301758 C436.625488,142.696615 436.851074,141.930339 436.851074,141.00293 C436.851074,140.043294 436.595052,139.316406 436.083008,138.822266 C435.570964,138.328125 434.944336,138.081055 434.203125,138.081055 C433.375977,138.081055 432.717122,138.367513 432.226562,138.94043 C431.736003,139.513346 431.490723,140.283203 431.490723,141.25 C431.490723,142.152344 431.72347,142.871175 432.188965,143.406494 C432.65446,143.941813 433.282878,144.209473 434.074219,144.209473 Z M434.165527,143.376953 C433.581868,143.376953 433.155762,143.172852 432.887207,142.764648 C432.618652,142.356445 432.484375,141.846191 432.484375,141.233887 C432.484375,140.596517 432.618652,140.052246 432.887207,139.601074 C433.155762,139.149902 433.585449,138.924316 434.17627,138.924316 C434.842285,138.924316 435.311361,139.18929 435.583496,139.719238 C435.755371,140.055827 435.841309,140.492676 435.841309,141.029785 C435.841309,141.624186 435.722249,142.163981 435.484131,142.64917 C435.246012,143.134359 434.806478,143.376953 434.165527,143.376953 Z M438.994141,144 L438.994141,136.109863 L438.027344,136.109863 L438.027344,144 L438.994141,144 Z M442.404785,144.204102 C442.802246,144.204102 443.154948,144.125326 443.462891,143.967773 C443.770833,143.810221 444.037598,143.554199 444.263184,143.199707 L444.263184,143.199707 L444.263184,144 L445.133301,144 L445.133301,136.083008 L444.204102,136.083008 L444.204102,138.98877 C443.985677,138.720215 443.790527,138.532227 443.618652,138.424805 C443.321452,138.238607 442.952637,138.145508 442.512207,138.145508 C441.717285,138.145508 441.105876,138.452555 440.677979,139.06665 C440.250081,139.680745 440.036133,140.406738 440.036133,141.244629 C440.036133,142.139811 440.270671,142.856852 440.739746,143.395752 C441.208822,143.934652 441.763835,144.204102 442.404785,144.204102 Z M442.705566,143.36084 C442.129069,143.36084 441.710124,143.153158 441.44873,142.737793 C441.187337,142.322428 441.056641,141.806803 441.056641,141.190918 C441.056641,140.467611 441.207926,139.919759 441.510498,139.547363 C441.81307,139.174967 442.207845,138.98877 442.694824,138.98877 C443.131673,138.98877 443.498698,139.16333 443.795898,139.512451 C444.093099,139.861572 444.241699,140.399577 444.241699,141.126465 C444.241699,141.846191 444.097575,142.398519 443.809326,142.783447 C443.521077,143.168376 443.153158,143.36084 442.705566,143.36084 Z" id=".hold" fill="#8C8C8C" fill-rule="nonzero"></path>
        <path d="M429.398801,204.485244 L429.398801,203.314346 L428.276242,203.314346 L428.276242,204.485244 L429.398801,204.485244 Z M432.068234,204.485244 L432.068234,201.434463 C432.068234,200.668187 432.231157,200.147191 432.557004,199.871475 C432.88285,199.595759 433.246294,199.457901 433.647336,199.457901 C434.130734,199.457901 434.460161,199.615453 434.635617,199.930557 C434.743039,200.127497 434.79675,200.43723 434.79675,200.859756 L434.79675,200.859756 L434.79675,204.485244 L435.790402,204.485244 L435.790402,200.795303 C435.790402,200.229548 435.709836,199.787328 435.548703,199.468643 C435.251502,198.884984 434.685747,198.593154 433.851437,198.593154 C433.385942,198.593154 432.997433,198.695205 432.68591,198.899307 C432.503293,199.017471 432.297401,199.221572 432.068234,199.511611 L432.068234,199.511611 L432.068234,196.568252 L431.101437,196.568252 L431.101437,204.485244 L432.068234,204.485244 Z M439.410519,204.694717 C440.359413,204.694717 441.059445,204.392145 441.510617,203.787002 C441.961789,203.181859 442.187375,202.415583 442.187375,201.488174 C442.187375,200.528539 441.931353,199.801651 441.419308,199.30751 C440.907264,198.813369 440.280636,198.566299 439.539426,198.566299 C438.712277,198.566299 438.053423,198.852757 437.562863,199.425674 C437.072303,199.998591 436.827023,200.768447 436.827023,201.735244 C436.827023,202.637588 437.059771,203.356419 437.525265,203.891738 C437.99076,204.427057 438.619178,204.694717 439.410519,204.694717 Z M439.501828,203.862197 C438.918169,203.862197 438.492062,203.658096 438.223508,203.249893 C437.954953,202.84169 437.820676,202.331436 437.820676,201.719131 C437.820676,201.081761 437.954953,200.53749 438.223508,200.086319 C438.492062,199.635147 438.92175,199.409561 439.51257,199.409561 C440.178586,199.409561 440.647661,199.674535 440.919797,200.204483 C441.091672,200.541071 441.177609,200.97792 441.177609,201.515029 C441.177609,202.109431 441.05855,202.649225 440.820431,203.134414 C440.582313,203.619603 440.142778,203.862197 439.501828,203.862197 Z M444.330441,204.485244 L444.330441,196.595108 L443.363644,196.595108 L443.363644,204.485244 L444.330441,204.485244 Z M447.741086,204.689346 C448.138547,204.689346 448.491248,204.61057 448.799191,204.453018 C449.107134,204.295466 449.373898,204.039444 449.599484,203.684951 L449.599484,203.684951 L449.599484,204.485244 L450.469601,204.485244 L450.469601,196.568252 L449.540402,196.568252 L449.540402,199.474014 C449.321978,199.205459 449.126828,199.017471 448.954953,198.910049 C448.657752,198.723851 448.288937,198.630752 447.848508,198.630752 C447.053586,198.630752 446.442176,198.9378 446.014279,199.551895 C445.586382,200.16599 445.372433,200.891983 445.372433,201.729873 C445.372433,202.625056 445.606971,203.342097 446.076047,203.880996 C446.545122,204.419896 447.100135,204.689346 447.741086,204.689346 Z M448.041867,203.846084 C447.46537,203.846084 447.046424,203.638402 446.785031,203.223037 C446.523638,202.807673 446.392941,202.292048 446.392941,201.676162 C446.392941,200.952855 446.544227,200.405003 446.846799,200.032608 C447.14937,199.660212 447.544146,199.474014 448.031125,199.474014 C448.467974,199.474014 448.834998,199.648574 449.132199,199.997695 C449.429399,200.346817 449.578,200.884821 449.578,201.611709 C449.578,202.331436 449.433875,202.883763 449.145627,203.268692 C448.857378,203.65362 448.489458,203.846084 448.041867,203.846084 Z" id=".hold" fill="#8C8C8C" fill-rule="nonzero" transform="translate(439.372922, 200.631485) rotate(-315.000000) translate(-439.372922, -200.631485) "></path>
        <text id="Auto" font-family="Helvetica" font-size="11" font-weight="normal" fill="#8C8C8C">
            <tspan x="42" y="33">Auto</tspan>
        </text>
        <text id="Dismissable" font-family="Helvetica" font-size="11" font-weight="normal" fill="#8C8C8C">
            <tspan x="42" y="52">Dismissable</tspan>
        </text>
        <rect id="Rectangle" fill="#F43A90" x="23" y="23" width="12" height="12"></rect>
        <rect id="Rectangle-Copy-13" fill="#3E2ADB" x="23" y="42" width="12" height="12"></rect>
    </g>
</svg>