<?xml version="1.0" encoding="UTF-8"?>
<svg width="540px" height="285px" viewBox="0 0 540 285" version="1.1" xmlns="http://www.w3.org/2000/svg" xmlns:xlink="http://www.w3.org/1999/xlink">
    <title>iPhone 8</title>
    <defs>
        <rect id="path-1" x="238" y="48" width="42" height="42" rx="6"></rect>
        <mask id="mask-2" maskContentUnits="userSpaceOnUse" maskUnits="objectBoundingBox" x="0" y="0" width="42" height="42" fill="white">
            <use xlink:href="#path-1"></use>
        </mask>
        <rect id="path-3" x="238" y="129" width="42" height="42" rx="6"></rect>
        <mask id="mask-4" maskContentUnits="userSpaceOnUse" maskUnits="objectBoundingBox" x="0" y="0" width="42" height="42" fill="white">
            <use xlink:href="#path-3"></use>
        </mask>
        <rect id="path-5" x="472" y="143" width="42" height="42" rx="6"></rect>
        <mask id="mask-6" maskContentUnits="userSpaceOnUse" maskUnits="objectBoundingBox" x="0" y="0" width="42" height="42" fill="white">
            <use xlink:href="#path-5"></use>
        </mask>
        <rect id="path-7" x="238" y="210" width="42" height="42" rx="6"></rect>
        <mask id="mask-8" maskContentUnits="userSpaceOnUse" maskUnits="objectBoundingBox" x="0" y="0" width="42" height="42" fill="white">
            <use xlink:href="#path-7"></use>
        </mask>
    </defs>
    <g id="iPhone-8" stroke="none" stroke-width="1" fill="none" fill-rule="evenodd">
        <path d="M55,114 C58.3137085,114 61,116.686292 61,120 L61,132 L62,132 L62,141 L61,141 L61,179 C61,182.313708 58.3137085,185 55,185 L33,185 C29.6862915,185 27,182.313708 27,179 L27,143 L26,143 L26,137 L27,137 L27,136 L26,136 L26,130 L27,130 L27,128 L26,128 L26,125 L27,125 L27,120 C27,116.686292 29.6862915,114 33,114 L55,114 Z M55,116 L52,116 L52,117 C52,117.552285 51.5522847,118 51,118 L36,118 C35.4477153,118 35,117.552285 35,117 L35,116 L33,116 C30.8578046,116 29.1089211,117.683968 29.0048953,119.80036 L29,120 L29,179 C29,181.142195 30.6839685,182.891079 32.8003597,182.995105 L33,183 L55,183 C57.1421954,183 58.8910789,181.316032 58.9951047,179.19964 L59,179 L59,120 C59,117.857805 57.3160315,116.108921 55.1996403,116.004895 L55,116 Z" id="Combined-Shape" fill="#0285E9" fill-rule="nonzero"></path>
        <path d="M161,114 C164.313708,114 167,116.686292 167,120 L167,132 L168,132 L168,141 L167,141 L167,179 C167,182.313708 164.313708,185 161,185 L139,185 C135.686292,185 133,182.313708 133,179 L133,143 L132,143 L132,137 L133,137 L133,136 L132,136 L132,130 L133,130 L133,128 L132,128 L132,125 L133,125 L133,120 C133,116.686292 135.686292,114 139,114 L161,114 Z M161,116 L158,116 L158,117 C158,117.552285 157.552285,118 157,118 L142,118 C141.447715,118 141,117.552285 141,117 L141,116 L139,116 C136.857805,116 135.108921,117.683968 135.004895,119.80036 L135,120 L135,179 C135,181.142195 136.683968,182.891079 138.80036,182.995105 L139,183 L161,183 C163.142195,183 164.891079,181.316032 164.995105,179.19964 L165,179 L165,120 C165,117.857805 163.316032,116.108921 161.19964,116.004895 L161,116 Z" id="Combined-Shape-Copy" fill="#0285E9" fill-rule="nonzero"></path>
        <path d="M393,114 C396.313708,114 399,116.686292 399,120 L399,132 L400,132 L400,141 L399,141 L399,179 C399,182.313708 396.313708,185 393,185 L371,185 C367.686292,185 365,182.313708 365,179 L365,143 L364,143 L364,137 L365,137 L365,136 L364,136 L364,130 L365,130 L365,128 L364,128 L364,125 L365,125 L365,120 C365,116.686292 367.686292,114 371,114 L393,114 Z M393,116 L390,116 L390,117 C390,117.552285 389.552285,118 389,118 L374,118 C373.447715,118 373,117.552285 373,117 L373,116 L371,116 C368.857805,116 367.108921,117.683968 367.004895,119.80036 L367,120 L367,179 C367,181.142195 368.683968,182.891079 370.80036,182.995105 L371,183 L393,183 C395.142195,183 396.891079,181.316032 396.995105,179.19964 L397,179 L397,120 C397,117.857805 395.316032,116.108921 393.19964,116.004895 L393,116 Z" id="Combined-Shape-Copy-2" fill="#0285E9" fill-rule="nonzero"></path>
        <text id=".splash" font-family="Helvetica" font-size="14" font-weight="normal" fill="#8C8C8C">
            <tspan x="22.8208008" y="203">.splash</tspan>
        </text>
        <text id=".dashboard" font-family="Helvetica" font-size="14" font-weight="normal" fill="#8C8C8C">
            <tspan x="346.972656" y="203">.dashboard</tspan>
        </text>
        <text id=".compose" font-family="Helvetica" font-size="14" font-weight="normal" fill="#8C8C8C">
            <tspan x="462.151855" y="203">.compose</tspan>
        </text>
        <text id=".login" font-family="Helvetica" font-size="14" font-weight="normal" fill="#8C8C8C">
            <tspan x="243.265625" y="107">.login</tspan>
        </text>
        <text id=".register" font-family="Helvetica" font-size="14" font-weight="normal" fill="#8C8C8C">
            <tspan x="235.213867" y="188">.register</tspan>
        </text>
        <text id=".forgotPass" font-family="Helvetica" font-size="14" font-weight="normal" fill="#8C8C8C">
            <tspan x="224.593262" y="269">.forgotPass</tspan>
        </text>
        <text id=".gatekeeper" font-family="Helvetica" font-size="14" font-weight="normal" fill="#8C8C8C">
            <tspan x="113.527832" y="203">.gatekeeper</tspan>
        </text>
        <use id="Rectangle" stroke="#8CCDFF" mask="url(#mask-2)" stroke-width="4" stroke-dasharray="3" xlink:href="#path-1"></use>
        <use id="Rectangle-Copy-4" stroke="#8CCDFF" mask="url(#mask-4)" stroke-width="4" stroke-dasharray="3" xlink:href="#path-3"></use>
        <use id="Rectangle-Copy-6" stroke="#8CCDFF" mask="url(#mask-6)" stroke-width="4" stroke-dasharray="3" xlink:href="#path-5"></use>
        <use id="Rectangle-Copy-5" stroke="#8CCDFF" mask="url(#mask-8)" stroke-width="4" stroke-dasharray="3" xlink:href="#path-7"></use>
    </g>
</svg>