<?xml version="1.0" encoding="UTF-8"?>
<svg width="118px" height="102px" viewBox="0 0 118 102" version="1.1" xmlns="http://www.w3.org/2000/svg" xmlns:xlink="http://www.w3.org/1999/xlink">
    <title>logo</title>
    <g id="Page-1" stroke="none" stroke-width="1" fill="none" fill-rule="evenodd">
        <g id="Banner" transform="translate(-101.000000, -74.000000)" fill-rule="nonzero">
            <g id="Group" transform="translate(101.000000, 74.000000)">
                <path d="M59,2.91564975e-14 C60.6568542,2.92579506e-14 62,1.34314575 62,3 L61.999637,8.08674968 L61.7515132,8.07295869 C73.5804038,8.70182545 84.3397657,13.3613847 92.6811561,20.7031938 L93.095,21.072 L92.8794721,20.8786553 L96.4766594,17.2806999 C97.6482323,16.109127 99.5477272,16.109127 100.7193,17.2806999 C101.890873,18.4522728 101.890873,20.3517677 100.7193,21.5233406 L97.1213447,25.1205279 L96.863,24.832 L97.2654498,25.2832515 C104.476466,33.460782 109.107166,43.9679063 109.883873,55.5309474 L109.913,56.005 L109.913192,55.9993631 L115,56 C116.656854,56 118,57.3431458 118,59 C118,60.6568542 116.656854,62 115,62 L109.91325,61.999637 L109.919,61.877 L109.892344,62.3405403 C109.487456,68.6025616 107.952406,74.556701 105.489079,80.0010717 L98.8091969,80.0009903 C102.123413,73.7315989 104,66.5849496 104,59 C104,34.1471863 83.8528137,14 59,14 C34.1471863,14 14,34.1471863 14,59 C14,66.5849496 15.8765869,73.7315989 19.1908031,80.0009903 L12.5109208,80.0010717 C10.0475939,74.556701 8.51254355,68.6025616 8.10765639,62.3405403 L8.08,61.877 L8.08680768,62.0006369 L3,62 C1.34314575,62 2.27760279e-13,60.6568542 2.27557372e-13,59 C2.27354466e-13,57.3431458 1.34314575,56 3,56 L8.08674968,56.000363 L8.086,56.005 L8.1161272,55.5309474 C8.89283353,43.9679063 13.5235335,33.460782 20.7345502,25.2832515 L21.136,24.832 L20.8786553,25.1205279 L17.2806999,21.5233406 C16.109127,20.3517677 16.109127,18.4522728 17.2806999,17.2806999 C18.4522728,16.109127 20.3517677,16.109127 21.5233406,17.2806999 L25.1205279,20.8786553 L24.904,21.072 L25.3189195,20.7031272 C33.6617113,13.3601138 44.4232744,8.70024618 56.2544937,8.07263969 L55.9993631,8.08680768 L56,3 C56,1.34314575 57.3431458,2.90550444e-14 59,2.91564975e-14 Z M29.949205,32.9792448 C30.0736429,32.8404136 30.1987697,32.7027956 30.3248618,32.5660816 C30.3644626,32.5231452 30.4040143,32.4804532 30.4436601,32.43785 C30.5713409,32.3006438 30.7001163,32.164236 30.8298593,32.0287624 C30.8631106,31.994042 30.8966543,31.9591456 30.9302623,31.9243116 C31.2557303,31.586976 31.586976,31.2557303 31.9240647,30.9305005 C31.9591456,30.8966543 31.994042,30.8631106 32.0290005,30.8296313 C32.1727749,30.6919387 32.3178429,30.5551114 32.4639532,30.419391 L32.5659257,30.3250055 C32.7037828,30.1978592 32.842401,30.0718359 32.9819251,29.946803 C33.020965,29.9118186 33.0597328,29.8772168 33.09857,29.8426913 C39.1490534,24.4637931 46.8857789,20.9395946 55.41635,20.1624497 L55.9991995,20.1137298 L56.1592439,20.1018804 L56.254,20.095 L56.4058801,20.0849053 L56.511,20.078 L56.477,20.08 L56.549,20.076 L56.626,20.071 L56.8136986,20.0602482 C56.9974592,20.050093 57.1817804,20.0412007 57.366433,20.0335924 L57.5662104,20.0258669 C57.7493214,20.0192506 57.9324964,20.0139024 58.1159839,20.0098215 C58.1728779,20.0085564 58.2296125,20.0074166 58.2863767,20.006398 C58.5234909,20.0021409 58.7614954,20 59,20 L59.673,20.006 L59.8835302,20.0098107 C60.0675036,20.0139024 60.2506786,20.0192506 60.4335326,20.0258576 C60.4997231,20.0282488 60.5660946,20.0308142 60.6324233,20.0335453 C60.8192282,20.0412376 61.0055503,20.0502359 61.1915248,20.0605372 C61.2318309,20.0627697 61.2721784,20.0650669 61.3125095,20.0674253 C61.4916095,20.0778985 61.6703524,20.089578 61.8487626,20.1024576 C61.8993044,20.1061066 61.9495659,20.1098326 61.9998008,20.1136537 C70.3716859,20.7504714 78.0047464,24.0304992 84.0663202,29.1210749 L84.443,29.442 L84.9,29.842 L85.0177331,29.9464967 C85.157599,30.0718359 85.2962172,30.1978592 85.4339184,30.3248618 C85.4680962,30.3563844 85.5020622,30.3878232 85.535972,30.4193215 C85.6821571,30.5551114 85.8272251,30.6919387 85.9712376,30.8298593 C86.005958,30.8631106 86.0408544,30.8966543 86.0756884,30.9302623 C86.413024,31.2557303 86.7442697,31.586976 87.0694995,31.9240647 C87.1033457,31.9591456 87.1368894,31.994042 87.1703687,32.0290005 C87.2998837,32.164236 87.4286591,32.3006438 87.5564558,32.4379746 L87.6749945,32.5659257 C87.8012303,32.7027956 87.9263571,32.8404136 88.0505078,32.9789245 C88.0863798,33.0189466 88.1218845,33.0587217 88.1573087,33.09857 C93.5362069,39.1490534 97.0604054,46.8857789 97.8375503,55.41635 L97.8862702,55.9991995 L97.886,56.005 L97.889,56.039 L97.889,56.044 L97.898,56.174 L97.918,56.467 L97.924,56.559 L97.931,56.659 L97.932163,56.6804598 L97.9370779,56.7658375 C97.9462502,56.9282158 97.954446,57.0912408 97.9616378,57.2545266 C97.9657159,57.3470978 97.9694858,57.4401439 97.9729291,57.5332735 C97.9801008,57.7272659 97.9858519,57.9214493 97.9901785,58.1159839 C97.9914432,58.1728594 97.9925827,58.2295756 97.993601,58.2863213 C97.9978591,58.5234909 98,58.7614954 98,59 L97.998,59.176 L97.9985115,59.3443425 L97.997,59.426 L97.9940539,59.6879765 L97.995,59.52 L97.9908887,59.8514848 C97.9867149,60.0462141 97.9811334,60.2400531 97.9741424,60.4335326 C97.9720411,60.4916975 97.9698034,60.550053 97.9674376,60.6083755 C97.9598298,60.7958984 97.950909,60.9828795 97.940676,61.1695111 C97.9380614,61.2171956 97.9353609,61.264864 97.9325747,61.3125095 C97.9221015,61.4916095 97.910422,61.6703524 97.8975424,61.8487626 C97.8938934,61.8993044 97.8901674,61.9495659 97.8863463,61.9998008 C97.3847422,68.5941081 95.2432149,74.7300274 91.8686821,80.0006411 L84.455,80 L84.7139227,79.685025 C88.6832617,74.7569339 91.2649356,68.6641025 91.8654705,62.0000045 L69.5858962,62.0001373 C69.350633,62.8318957 69.0199826,63.6236037 68.6065094,64.3626968 L84.244,80 L75.757,80 L64.3637041,68.6059459 C63.6246184,69.0195168 62.8329064,69.3502618 62.0011345,69.5856141 L62.001,80 L55.999,80 L55.9998627,69.5858962 C55.1681043,69.350633 54.3763963,69.0199826 53.6373032,68.6065094 L42.243,80 L33.755,80 L49.3934906,64.3626968 C48.9801827,63.6238991 48.6496313,62.8325285 48.4143859,62.0011345 L26.1346196,62.0010049 C26.7482363,68.807964 29.4288478,75.0188598 33.5439724,80.0012105 L26.1312896,80.0006646 C22.8566338,74.8860487 20.7430111,68.956362 20.1624497,62.58365 L20.1137298,62.0008005 L20.113,61.994 L20.112,61.979 L20.11,61.955 L20.108,61.924 L20.101,61.825 L20.102,61.848 L20.0964776,61.7646724 L20.086,61.617 L20.092,61.695 L20.081,61.532 L20.081,61.542 L20.075,61.44 L20.059315,61.1693469 C20.049091,60.9828795 20.0401702,60.7958984 20.0325706,60.6085768 C20.0302134,60.5504821 20.027976,60.4921522 20.0258669,60.4337896 C20.0188666,60.2400531 20.0132851,60.0462141 20.0091229,59.8520258 C20.0079459,59.7970929 20.0068868,59.7423874 20.0059405,59.6876544 C20.0019874,59.459126 20,59.2297951 20,59 L19.999,58.999 L20.006,58.312 L20.006333,58.2900073 L20.0098107,58.1164698 C20.0141481,57.9214493 20.0198992,57.7272659 20.0270646,57.533444 C20.0304977,57.44056 20.0342697,57.3474388 20.0383677,57.2544023 C20.045554,57.0912408 20.0537498,56.9282158 20.0629436,56.7654577 C20.064406,56.7395668 20.0659028,56.7135253 20.0674253,56.6874905 C20.0793082,56.4842833 20.0927446,56.2815265 20.1077246,56.0791993 C20.1096815,56.0527701 20.1116546,56.026481 20.1136537,56.0001992 C20.7504714,47.6283141 24.0304992,39.9952536 29.1210749,33.9336798 L29.442,33.556 L29.495,33.495 L29.6642905,33.3006448 C29.7586805,33.1929858 29.8536537,33.0858508 29.949205,32.9792448 Z M33.6398992,37.8831812 C29.4703152,42.8851584 26.7527272,49.1398946 26.1345295,55.9999955 L48.4141038,55.9998627 C48.649367,55.1681043 48.9800174,54.3763963 49.3934906,53.6373032 L33.6398992,37.8831812 Z M84.3601008,37.8831812 L68.6059459,53.6362959 C69.0195168,54.3753816 69.3502618,55.1670936 69.5856141,55.9988655 L91.8653804,55.9989951 C91.2470086,49.1392865 88.5294821,42.8849152 84.3601008,37.8831812 Z M55.9989951,26.1346196 C49.1392865,26.7529914 42.8849152,29.4705179 37.8831812,33.6398992 L53.6362959,49.3940541 C54.3753816,48.9804832 55.1670936,48.6497382 55.9988655,48.4143859 L55.9989951,26.1346196 Z M62.0000045,26.1345295 L62.0001373,48.4141038 C62.8318957,48.649367 63.6236037,48.9800174 64.3626968,49.3934906 L80.1168188,33.6398992 C75.1148416,29.4703152 68.8601054,26.7527272 62.0000045,26.1345295 Z" id="Combined-Shape" fill="#0074E0"></path>
                <polygon id="Path" fill="#71747A" points="18.2294056 102 18.2294056 93.9946417 24.7705944 93.9946417 24.7705944 102 30 102 30 84 24.7705944 84 24.7705944 90.8600134 18.2294056 90.8600134 18.2294056 84 13 84 13 102"></polygon>
                <polygon id="Path" fill="#71747A" points="54 102 54 98.8653717 43.7580645 98.8653717 43.7580645 94.1513731 53.0322581 94.1513731 53.0322581 91.0167448 43.7580645 91.0167448 43.7580645 87.1346283 54 87.1346283 54 84 39 84 39 102"></polygon>
                <polygon id="Path" fill="#71747A" points="78 102 78 98.8653717 67.7786177 98.8653717 67.7786177 84 63 84 63 102"></polygon>
                <polygon id="Path" fill="#71747A" points="91.3091423 102 91.3091423 87.58071 94.0235627 91.8534494 98.0103676 91.8534494 100.690858 87.58071 100.690858 102 105 102 105 84 98.994345 84 95.9915174 88.296852 92.9717248 84 87 84 87 102"></polygon>
            </g>
        </g>
    </g>
</svg>